<?xml version="1.0" encoding="UTF-8" standalone="no" ?>
<!DOCTYPE svg PUBLIC "-//W3C//DTD SVG 1.1//EN" "http://www.w3.org/Graphics/SVG/1.1/DTD/svg11.dtd">
<svg xmlns="http://www.w3.org/2000/svg" xmlns:xlink="http://www.w3.org/1999/xlink" version="1.1" width="400" height="400" viewBox="0 0 400 400" xml:space="preserve">
<desc>Created with Fabric.js 3.6.2</desc>
<defs>
</defs>
<g transform="matrix(11.11 0 0 11.11 200 200)" id="Shape"  >
<path style="stroke: none; stroke-width: 1; stroke-dasharray: none; stroke-linecap: butt; stroke-dashoffset: 0; stroke-linejoin: miter; stroke-miterlimit: 4; fill: rgb(74,74,74); fill-rule: evenodd; opacity: 1;"  transform=" translate(-9, -9)" d="M 17.5 2.2 L 16.1 0.5 C 15.9 0.2 15.5 0 15 0 L 3 0 C 2.5 0 2.1 0.2 1.8 0.5 L 0.5 2.2 C 0.2 2.6 0 3 0 3.5 L 0 16 C 0 17.1 0.9 18 2 18 L 16 18 C 17.1 18 18 17.1 18 16 L 18 3.5 C 18 3 17.8 2.6 17.5 2.2 L 17.5 2.2 Z M 9 14.5 L 3.5 9 L 7 9 L 7 7 L 11 7 L 11 9 L 14.5 9 L 9 14.5 L 9 14.5 Z M 2.1 2 L 2.9 1 L 14.9 1 L 15.8 2 L 2.1 2 L 2.1 2 Z" stroke-linecap="round" />
</g>
</svg>