<?xml version="1.0" encoding="UTF-8" standalone="no" ?>
<!DOCTYPE svg PUBLIC "-//W3C//DTD SVG 1.1//EN" "http://www.w3.org/Graphics/SVG/1.1/DTD/svg11.dtd">
<svg xmlns="http://www.w3.org/2000/svg" xmlns:xlink="http://www.w3.org/1999/xlink" version="1.1" width="400" height="400" viewBox="0 0 400 400" xml:space="preserve">
<desc>Created with Fabric.js 3.6.2</desc>
<defs>
</defs>
<g transform="matrix(4.17 0 0 4.17 200 200)"  >
<path style="stroke: none; stroke-width: 1; stroke-dasharray: none; stroke-linecap: butt; stroke-dashoffset: 0; stroke-linejoin: miter; stroke-miterlimit: 4; fill: none; fill-rule: nonzero; opacity: 1;"  transform=" translate(-24, -24)" d="M 0 0 h 48 v 48 H 0 z" stroke-linecap="round" />
</g>
<g transform="matrix(4.17 0 0 4.17 195.83 200)"  >
<path style="stroke: none; stroke-width: 1; stroke-dasharray: none; stroke-linecap: butt; stroke-dashoffset: 0; stroke-linejoin: miter; stroke-miterlimit: 4; fill: rgb(74,74,74); fill-rule: nonzero; opacity: 1;"  transform=" translate(-23, -24)" d="M 32 2 H 8 C 5.79 2 4 3.79 4 6 v 28 h 4 V 6 h 24 V 2 z m 6 8 H 16 c -2.21 0 -4 1.79 -4 4 v 28 c 0 2.21 1.79 4 4 4 h 22 c 2.21 0 4 -1.79 4 -4 V 14 c 0 -2.21 -1.79 -4 -4 -4 z m 0 32 H 16 V 14 h 22 v 28 z" stroke-linecap="round" />
</g>
</svg>