<?xml version="1.0" encoding="UTF-8" standalone="no" ?>
<!DOCTYPE svg PUBLIC "-//W3C//DTD SVG 1.1//EN" "http://www.w3.org/Graphics/SVG/1.1/DTD/svg11.dtd">
<svg xmlns="http://www.w3.org/2000/svg" xmlns:xlink="http://www.w3.org/1999/xlink" version="1.1" width="400" height="400" viewBox="0 0 400 400" xml:space="preserve">
<desc>Created with Fabric.js 3.6.2</desc>
<defs>
</defs>
<g transform="matrix(0.14 0 0 0.14 200 200)"  >
<path style="stroke: none; stroke-width: 1; stroke-dasharray: none; stroke-linecap: butt; stroke-dashoffset: 0; stroke-linejoin: miter; stroke-miterlimit: 4; fill: rgb(74,74,74); fill-rule: nonzero; opacity: 1;"  transform=" translate(-896, -896)" d="M 704 1376 v -704 q 0 -14 -9 -23 t -23 -9 h -64 q -14 0 -23 9 t -9 23 v 704 q 0 14 9 23 t 23 9 h 64 q 14 0 23 -9 t 9 -23 z m 256 0 v -704 q 0 -14 -9 -23 t -23 -9 h -64 q -14 0 -23 9 t -9 23 v 704 q 0 14 9 23 t 23 9 h 64 q 14 0 23 -9 t 9 -23 z m 256 0 v -704 q 0 -14 -9 -23 t -23 -9 h -64 q -14 0 -23 9 t -9 23 v 704 q 0 14 9 23 t 23 9 h 64 q 14 0 23 -9 t 9 -23 z m -544 -992 h 448 l -48 -117 q -7 -9 -17 -11 h -317 q -10 2 -17 11 z m 928 32 v 64 q 0 14 -9 23 t -23 9 h -96 v 948 q 0 83 -47 143.5 t -113 60.5 h -832 q -66 0 -113 -58.5 t -47 -141.5 v -952 h -96 q -14 0 -23 -9 t -9 -23 v -64 q 0 -14 9 -23 t 23 -9 h 309 l 70 -167 q 15 -37 54 -63 t 79 -26 h 320 q 40 0 79 26 t 54 63 l 70 167 h 309 q 14 0 23 9 t 9 23 z" stroke-linecap="round" />
</g>
</svg>