<?xml version="1.0" encoding="UTF-8" standalone="no" ?>
<!DOCTYPE svg PUBLIC "-//W3C//DTD SVG 1.1//EN" "http://www.w3.org/Graphics/SVG/1.1/DTD/svg11.dtd">
<svg xmlns="http://www.w3.org/2000/svg" xmlns:xlink="http://www.w3.org/1999/xlink" version="1.1" width="400" height="400" viewBox="0 0 400 400" xml:space="preserve">
<desc>Created with Fabric.js 3.6.2</desc>
<defs>
</defs>
<g transform="matrix(10 0 0 10 200 200)"  >
<path style="stroke: none; stroke-width: 1; stroke-dasharray: none; stroke-linecap: butt; stroke-dashoffset: 0; stroke-linejoin: miter; stroke-miterlimit: 4; fill: rgb(74,74,74); fill-rule: evenodd; opacity: 1;"  transform=" translate(-12, -12)" d="M 14.8024118 6.44526791 L 8.69610276 12.549589 C 8.29095108 12.9079238 8.04030835 13.4092335 8 13.8678295 L 8 16.0029438 L 10.0639829 16.004826 C 10.5982069 15.9670062 11.0954869 15.7183782 11.4947932 15.2616227 L 17.556693 9.19972295 L 14.8024118 6.44526791 Z M 16.2168556 5.0312846 L 18.9709065 7.78550938 L 19.8647941 6.89162181 C 19.9513987 6.80501747 20.0000526 6.68755666 20.0000526 6.56507948 C 20.0000526 6.4426023 19.9513987 6.32514149 19.8647932 6.23853626 L 17.7611243 4.13485646 C 17.6754884 4.04854589 17.5589355 4 17.43735 4 C 17.3157645 4 17.1992116 4.04854589 17.1135757 4.13485646 L 16.2168556 5.0312846 Z M 22 13 L 22 20 C 22 21.1045695 21.1045695 22 20 22 L 4 22 C 2.8954305 22 2 21.1045695 2 20 L 2 4 C 2 2.8954305 2.8954305 2 4 2 L 11 2 L 11 4 L 4 4 L 4 20 L 20 20 L 20 13 L 22 13 Z M 17.43735 2 C 18.0920882 2 18.7197259 2.26141978 19.1781068 2.7234227 L 21.2790059 4.82432181 C 21.7406843 5.28599904 22.0000526 5.91216845 22.0000526 6.56507948 C 22.0000526 7.21799052 21.7406843 7.84415992 21.2790068 8.30583626 L 12.9575072 16.6237545 C 12.2590245 17.4294925 11.2689 17.9245308 10.1346 18.0023295 L 6 18.0023295 L 6 17.0023295 L 6.00324765 13.7873015 C 6.08843822 12.7328366 6.57866679 11.7523321 7.32649633 11.0934196 L 15.6953877 2.72462818 C 16.1563921 2.2608295 16.7833514 2 17.43735 2 Z" stroke-linecap="round" />
</g>
</svg>