<?xml version="1.0" encoding="UTF-8" standalone="no" ?>
<!DOCTYPE svg PUBLIC "-//W3C//DTD SVG 1.1//EN" "http://www.w3.org/Graphics/SVG/1.1/DTD/svg11.dtd">
<svg xmlns="http://www.w3.org/2000/svg" xmlns:xlink="http://www.w3.org/1999/xlink" version="1.1" width="400" height="400" viewBox="0 0 400 400" xml:space="preserve">
<desc>Created with Fabric.js 3.6.2</desc>
<defs>
</defs>
<g transform="matrix(8.33 0 0 8.33 200 200)" id="Слой_1"  >
<path style="stroke: none; stroke-width: 1; stroke-dasharray: none; stroke-linecap: butt; stroke-dashoffset: 0; stroke-linejoin: miter; stroke-miterlimit: 4; fill: rgb(74,74,74); fill-rule: nonzero; opacity: 1;"  transform=" translate(-13, -13)" d="M 14.0605469 13 L 24.7802734 2.2802734 c 0.2929688 -0.2929688 0.2929688 -0.7675781 0 -1.0605469 s -0.7675781 -0.2929688 -1.0605469 0 L 13 11.9394531 L 2.2802734 1.2197266 c -0.2929688 -0.2929688 -0.7675781 -0.2929688 -1.0605469 0 s -0.2929688 0.7675781 0 1.0605469 L 11.9394531 13 L 1.2197266 23.7197266 c -0.2929688 0.2929688 -0.2929688 0.7675781 0 1.0605469 C 1.3662109 24.9267578 1.5576172 25 1.75 25 s 0.3837891 -0.0732422 0.5302734 -0.2197266 L 13 14.0605469 l 10.7197266 10.7197266 C 23.8662109 24.9267578 24.0576172 25 24.25 25 s 0.3837891 -0.0732422 0.5302734 -0.2197266 c 0.2929688 -0.2929688 0.2929688 -0.7675781 0 -1.0605469 L 14.0605469 13 z" stroke-linecap="round" />
</g>
</svg>